<?xml version="1.0" encoding="UTF-8"?>
<svg id="Layer_2" data-name="Layer 2" xmlns="http://www.w3.org/2000/svg" xmlns:xlink="http://www.w3.org/1999/xlink" viewBox="0 0 2169.37 430.32">
  <defs>
    <style>
      .cls-1 {
        fill: #4cba7b;
      }

      .cls-2 {
        fill: #67be6a;
      }

      .cls-3 {
        fill: url(#New_Gradient_Swatch_1);
      }
    </style>
    <linearGradient id="New_Gradient_Swatch_1" data-name="New Gradient Swatch 1" x1="10.4" y1="86.52" x2="358.14" y2="86.52" gradientUnits="userSpaceOnUse">
      <stop offset="0" stop-color="#1ca08f"/>
      <stop offset=".62" stop-color="#41b97f"/>
      <stop offset=".64" stop-color="#43b97d"/>
      <stop offset="1" stop-color="#67be68"/>
    </linearGradient>
  </defs>
  <g id="Layer_1-2" data-name="Layer 1">
    <g>
      <path d="M591.77,152.65h-68.91v-20.08c0-21.04,10.99-31.68,32.98-31.68h113.92c20.34,0,28.31,9,28.31,25.36,0,11.95-4.67,22.94-6.93,26.58h-99.38v-.17Z"/>
      <path d="M578.52,277.49h117.91v51.94h-173.57v-140.93h142.58c20.34,0,28.31,9,28.31,25.36,0,11.95-4.67,22.94-7.01,26.66h-108.21v36.96Z"/>
      <path d="M736.38,129.88c0-22.99,15.67-28.99,30.65-28.99s24.98,5.66,27.65,8c6.32,6.33,69.29,98.61,86.28,126.26v-109.61c0-18.32,11.66-24.65,28.98-24.65,12.99,0,23.65,4.34,25.99,5.33v223.2h-52.3c-12-19.99-68.29-106.27-92.28-140.58v140.58h-54.97v-199.55Z"/>
      <path d="M992.2,264.13c5.33,4.34,38.31,21.32,81.62,21.32,35.64,0,40.64-10.66,40.64-21.32s-6.99-17.32-30.65-21.32l-33.98-5.99c-35.65-6.33-74.29-20.99-74.29-67.96,0-40.98,29.98-73.96,94.28-73.96,45.97,0,69.29,11.66,76.29,15.99,7.66,4.33,15.99,12.33,15.99,22.99,0,15.32-12.33,27.98-18.65,32.64-8.99-8.99-35.98-22.99-72.96-22.99-34.65,0-38.31,12.66-38.31,21.99,0,8,3,14.33,29.65,19.66l35.31,7c49.64,9.65,75.96,27.64,75.96,68.96,0,46.64-36.31,74.28-99.94,74.28-56.97,0-99.61-22.99-103.94-27.31l22.99-43.98Z"/>
      <path d="M1323.31,94.9c69.63,0,123.6,52.63,123.6,120.27s-53.97,120.26-123.6,120.26-123.6-52.63-123.6-120.26,53.97-120.27,123.6-120.27ZM1388.61,215.16c0-38.98-26.98-68.3-65.3-68.3s-65.3,29.32-65.3,68.3,26.98,68.29,65.3,68.29,65.3-29.65,65.3-68.29Z"/>
      <path d="M1483.51,329.43V125.54c0-18.32,11.67-24.65,28.99-24.65,12.99,0,23.98,4.34,26.65,5.33v171.23h105.61v51.97h-161.24Z"/>
      <path d="M1669.71,329.43V125.54c0-18.32,11.67-24.65,28.99-24.65,12.99,0,23.98,4.34,26.65,5.33v223.2h-55.64Z"/>
      <path d="M1831.94,152.87h-53.3c-20.32,0-28.32-8.99-28.32-25.32,0-12,4.67-22.99,7-26.66h183.55c20.32,0,28.32,8.99,28.32,25.32,0,12-4.67,22.99-7,26.66h-74.62v176.56h-55.63v-176.56Z"/>
      <path d="M2049.78,240.47h108.27c2.34-3.65,6.99-14.65,6.99-26.63,0-16.35-7.98-25.32-28.3-25.32h-86.96v-.04h-55.64v140.94h173.56v-51.95h-117.92v-36.99ZM2073.6,152.88h88.79c2.34-3.69,6.99-14.69,6.99-26.67,0-16.31-7.98-25.32-28.3-25.32h-113.95c-21.99,0-32.98,10.68-32.98,31.67v20.28h79.46v.04Z"/>
    </g>
    <g>
      <path class="cls-3" d="M183.3,0L10.4,85.82l173.76,87.23,173.98-87.23L183.3,0ZM181.23,151.27l-2.58-49.62-20.78,6.94,24.17-89.4.33,63.11,22.29-11.04-23.44,80Z"/>
      <path class="cls-1" d="M190.67,181.17v98.07l110.32-53.81c-.47,4.14-.94,8.28-1.42,12.42-36.3,17.92-72.61,35.83-108.91,53.75v115.2l174.46-86.06V95.11l-174.46,86.06Z"/>
      <path class="cls-1" d="M177.87,182.92L2.26,95.11v223.88l175.62,87.81v-113.97c-36.3-17.92-72.61-35.83-108.91-53.75l-1.42-12.42,110.32,53.81v-97.55Z"/>
      <path class="cls-2" d="M4.9,345.84c57.31,28.16,114.62,56.32,171.93,84.48-.94-4.58-1.87-9.15-2.81-13.73L0,331.72c1.63,4.71,3.27,9.41,4.9,14.12Z"/>
      <path class="cls-2" d="M362.6,345.84c-57.31,28.16-114.62,56.32-171.93,84.48.94-4.58,1.87-9.15,2.81-13.73l174.02-84.88c-1.63,4.71-3.27,9.41-4.9,14.12Z"/>
    </g>
  </g>
</svg>